name Walk4.mot
datacolumns 19
datarows 27
range 1.71300000 1.73900000
endheader

                time	   L_ground_force_vx	   L_ground_force_vy	   L_ground_force_vz	   L_ground_force_px	   L_ground_force_py	   L_ground_force_pz	   R_ground_force_vx	   R_ground_force_vy	   R_ground_force_vz	   R_ground_force_px	   R_ground_force_py	   R_ground_force_pz	   L_ground_torque_x	   L_ground_torque_y	   L_ground_torque_z	   R_ground_torque_x	   R_ground_torque_y	   R_ground_torque_z	
          1.71300000	          0.00000000	          0.00000000	          0.00000000	          0.00000000	          0.00000000	          0.00000000	        -28.89628792	        419.73915023	        -23.83416883	          0.63996024	          0.00000000	          0.07898935	          0.00000000	          0.00000000	          0.00000000	          0.00000000	          1.58480296	          0.00000000	
          1.71400000	          0.00000000	          0.00000000	          0.00000000	          0.00000000	          0.00000000	          0.00000000	        -28.58365809	        419.10216590	        -23.46130575	          0.64040365	          0.00000000	          0.07886048	          0.00000000	          0.00000000	          0.00000000	          0.00000000	          1.53967947	          0.00000000	
          1.71500000	          0.00000000	          0.00000000	          0.00000000	          0.00000000	          0.00000000	          0.00000000	        -28.25209003	        418.54311647	        -23.09568542	          0.64087451	          0.00000000	          0.07869990	          0.00000000	          0.00000000	          0.00000000	          0.00000000	          1.49569863	          0.00000000	
          1.71600000	          0.00000000	          0.00000000	          0.00000000	          0.00000000	          0.00000000	          0.00000000	        -27.92593092	        418.02986015	        -22.73905209	          0.64132500	          0.00000000	          0.07853190	          0.00000000	          0.00000000	          0.00000000	          0.00000000	          1.45036381	          0.00000000	
          1.71700000	          0.00000000	          0.00000000	          0.00000000	          0.00000000	          0.00000000	          0.00000000	        -27.63871318	        417.54958105	        -22.39788871	          0.64173095	          0.00000000	          0.07839586	          0.00000000	          0.00000000	          0.00000000	          0.00000000	          1.40266521	          0.00000000	
          1.71800000	          0.00000000	          0.00000000	          0.00000000	          0.00000000	          0.00000000	          0.00000000	        -27.41322130	        417.12636261	        -22.07261475	          0.64208483	          0.00000000	          0.07832666	          0.00000000	          0.00000000	          0.00000000	          0.00000000	          1.36129301	          0.00000000	
          1.71900000	          0.00000000	          0.00000000	          0.00000000	          0.00000000	          0.00000000	          0.00000000	        -27.25437770	        416.78176042	        -21.75601672	          0.64239404	          0.00000000	          0.07833418	          0.00000000	          0.00000000	          0.00000000	          0.00000000	          1.33821195	          0.00000000	
          1.72000000	          0.00000000	          0.00000000	          0.00000000	          0.00000000	          0.00000000	          0.00000000	        -27.14424364	        416.48814904	        -21.44143257	          0.64270625	          0.00000000	          0.07839451	          0.00000000	          0.00000000	          0.00000000	          0.00000000	          1.33807019	          0.00000000	
          1.72100000	          0.00000000	          0.00000000	          0.00000000	          0.00000000	          0.00000000	          0.00000000	        -27.04053615	        416.19445996	        -21.12935749	          0.64309416	          0.00000000	          0.07846119	          0.00000000	          0.00000000	          0.00000000	          0.00000000	          1.35539870	          0.00000000	
          1.72200000	          0.00000000	          0.00000000	          0.00000000	          0.00000000	          0.00000000	          0.00000000	        -26.90846419	        415.88856823	        -20.82849274	          0.64359240	          0.00000000	          0.07849810	          0.00000000	          0.00000000	          0.00000000	          0.00000000	          1.37648021	          0.00000000	
          1.72300000	          0.00000000	          0.00000000	          0.00000000	          0.00000000	          0.00000000	          0.00000000	        -26.74620045	        415.60571326	        -20.55425728	          0.64416271	          0.00000000	          0.07849331	          0.00000000	          0.00000000	          0.00000000	          0.00000000	          1.38300789	          0.00000000	
          1.72400000	          0.00000000	          0.00000000	          0.00000000	          0.00000000	          0.00000000	          0.00000000	        -26.56217332	        415.38783579	        -20.31970231	          0.64472036	          0.00000000	          0.07844100	          0.00000000	          0.00000000	          0.00000000	          0.00000000	          1.36094743	          0.00000000	
          1.72500000	          0.00000000	          0.00000000	          0.00000000	          0.00000000	          0.00000000	          0.00000000	        -26.35083761	        415.25133238	        -20.12330929	          0.64517568	          0.00000000	          0.07833565	          0.00000000	          0.00000000	          0.00000000	          0.00000000	          1.31002666	          0.00000000	
          1.72600000	          0.00000000	          0.00000000	          0.00000000	          0.00000000	          0.00000000	          0.00000000	        -26.10230976	        415.18307502	        -19.94615718	          0.64546624	          0.00000000	          0.07818816	          0.00000000	          0.00000000	          0.00000000	          0.00000000	          1.24374827	          0.00000000	
          1.72700000	          0.00000000	          0.00000000	          0.00000000	          0.00000000	          0.00000000	          0.00000000	        -25.81400257	        415.16302802	        -19.75806236	          0.64557961	          0.00000000	          0.07803245	          0.00000000	          0.00000000	          0.00000000	          0.00000000	          1.18059939	          0.00000000	
          1.72800000	          0.00000000	          0.00000000	          0.00000000	          0.00000000	          0.00000000	          0.00000000	        -25.48440941	        415.17979612	        -19.52771708	          0.64555630	          0.00000000	          0.07790972	          0.00000000	          0.00000000	          0.00000000	          0.00000000	          1.13490693	          0.00000000	
          1.72900000	          0.00000000	          0.00000000	          0.00000000	          0.00000000	          0.00000000	          0.00000000	        -25.11106642	        415.20640680	        -19.23897032	          0.64549054	          0.00000000	          0.07783889	          0.00000000	          0.00000000	          0.00000000	          0.00000000	          1.10984358	          0.00000000	
          1.73000000	          0.00000000	          0.00000000	          0.00000000	          0.00000000	          0.00000000	          0.00000000	        -24.69907980	        415.18753062	        -18.90408264	          0.64550482	          0.00000000	          0.07779962	          0.00000000	          0.00000000	          0.00000000	          0.00000000	          1.09403035	          0.00000000	
          1.73100000	          0.00000000	          0.00000000	          0.00000000	          0.00000000	          0.00000000	          0.00000000	        -24.26390417	        415.09021185	        -18.54958282	          0.64566317	          0.00000000	          0.07775594	          0.00000000	          0.00000000	          0.00000000	          0.00000000	          1.06912057	          0.00000000	
          1.73200000	          0.00000000	          0.00000000	          0.00000000	          0.00000000	          0.00000000	          0.00000000	        -23.82768347	        414.94932005	        -18.18843647	          0.64591972	          0.00000000	          0.07769605	          0.00000000	          0.00000000	          0.00000000	          0.00000000	          1.02409665	          0.00000000	
          1.73300000	          0.00000000	          0.00000000	          0.00000000	          0.00000000	          0.00000000	          0.00000000	        -23.41086466	        414.83022321	        -17.82017927	          0.64617694	          0.00000000	          0.07763746	          0.00000000	          0.00000000	          0.00000000	          0.00000000	          0.96009852	          0.00000000	
          1.73400000	          0.00000000	          0.00000000	          0.00000000	          0.00000000	          0.00000000	          0.00000000	        -23.01728978	        414.75811130	        -17.44803218	          0.64636950	          0.00000000	          0.07760309	          0.00000000	          0.00000000	          0.00000000	          0.00000000	          0.88477848	          0.00000000	
          1.73500000	          0.00000000	          0.00000000	          0.00000000	          0.00000000	          0.00000000	          0.00000000	        -22.62921369	        414.70714995	        -17.08003502	          0.64649139	          0.00000000	          0.07760913	          0.00000000	          0.00000000	          0.00000000	          0.00000000	          0.80750099	          0.00000000	
          1.73600000	          0.00000000	          0.00000000	          0.00000000	          0.00000000	          0.00000000	          0.00000000	        -22.22297858	        414.65294925	        -16.72312837	          0.64658104	          0.00000000	          0.07766433	          0.00000000	          0.00000000	          0.00000000	          0.00000000	          0.73651027	          0.00000000	
          1.73700000	          0.00000000	          0.00000000	          0.00000000	          0.00000000	          0.00000000	          0.00000000	        -21.78926744	        414.60112906	        -16.38391329	          0.64669210	          0.00000000	          0.07775704	          0.00000000	          0.00000000	          0.00000000	          0.00000000	          0.67356369	          0.00000000	
          1.73800000	          0.00000000	          0.00000000	          0.00000000	          0.00000000	          0.00000000	          0.00000000	        -21.33975600	        414.56587860	        -16.06931317	          0.64684966	          0.00000000	          0.07785311	          0.00000000	          0.00000000	          0.00000000	          0.00000000	          0.61309054	          0.00000000	
          1.73900000	          0.00000000	          0.00000000	          0.00000000	          0.00000000	          0.00000000	          0.00000000	        -20.89482074	        414.56302951	        -15.78362994	          0.64703088	          0.00000000	          0.07792335	          0.00000000	          0.00000000	          0.00000000	          0.00000000	          0.55107288	          0.00000000	
